<?xml version="1.0" encoding="UTF-8"?>
<svg xmlns="http://www.w3.org/2000/svg" xmlns:xlink="http://www.w3.org/1999/xlink" width="40px" height="40px" viewBox="0 0 40 40" version="1.1">
<defs>
<linearGradient id="linear0" gradientUnits="userSpaceOnUse" x1="10" y1="3.333" x2="10" y2="16.667" gradientTransform="matrix(2,0,0,2,0,0)">
<stop offset="0" style="stop-color:rgb(40.392157%,86.666667%,3.921569%);stop-opacity:1;"/>
</linearGradient>
</defs>
<g id="surface1">
<path style=" stroke:none;fill-rule:nonzero;fill:url(#linear0);" d="M 33.335938 6.664062 L 6.664062 6.664062 C 4.835938 6.664062 3.351562 8.164062 3.351562 10 L 3.335938 30 C 3.335938 31.835938 4.835938 33.335938 6.664062 33.335938 L 33.335938 33.335938 C 35.164062 33.335938 36.664062 31.835938 36.664062 30 L 36.664062 10 C 36.664062 8.164062 35.164062 6.664062 33.335938 6.664062 Z M 32.664062 13.75 L 20.882812 21.117188 C 20.34375 21.453125 19.65625 21.453125 19.117188 21.117188 L 7.335938 13.75 C 6.886719 13.492188 6.613281 13.007812 6.625 12.492188 C 6.636719 11.972656 6.929688 11.503906 7.390625 11.265625 C 7.851562 11.027344 8.40625 11.058594 8.835938 11.351562 L 20 18.335938 L 31.164062 11.351562 C 31.59375 11.058594 32.148438 11.027344 32.609375 11.265625 C 33.070312 11.503906 33.363281 11.972656 33.375 12.492188 C 33.386719 13.007812 33.113281 13.492188 32.664062 13.75 Z M 32.664062 13.75 "/>
</g>
</svg>
