<?xml version="1.0" encoding="UTF-8"?>
<svg xmlns="http://www.w3.org/2000/svg" xmlns:xlink="http://www.w3.org/1999/xlink" width="27px" height="27px" viewBox="0 0 27 27" version="1.1">
<defs>
<linearGradient id="linear0" gradientUnits="userSpaceOnUse" x1="10" y1="3.333" x2="10" y2="16.667" gradientTransform="matrix(1.35,0,0,1.35,0,0)">
<stop offset="0" style="stop-color:rgb(40.392157%,86.666667%,3.921569%);stop-opacity:1;"/>
<stop offset="1" style="stop-color:#67dd0a;stop-opacity:1;"/>
</linearGradient>
</defs>
<g id="surface1">
<path style=" stroke:none;fill-rule:nonzero;fill:url(#linear0);" d="M 22.5 4.5 L 4.5 4.5 C 3.261719 4.5 2.261719 5.511719 2.261719 6.75 L 2.25 20.25 C 2.25 21.488281 3.261719 22.5 4.5 22.5 L 22.5 22.5 C 23.738281 22.5 24.75 21.488281 24.75 20.25 L 24.75 6.75 C 24.75 5.511719 23.738281 4.5 22.5 4.5 Z M 22.050781 9.28125 L 14.097656 14.253906 C 13.730469 14.480469 13.269531 14.480469 12.902344 14.253906 L 4.949219 9.28125 C 4.648438 9.105469 4.464844 8.78125 4.472656 8.429688 C 4.480469 8.082031 4.679688 7.765625 4.988281 7.605469 C 5.300781 7.445312 5.671875 7.464844 5.964844 7.660156 L 13.5 12.375 L 21.035156 7.660156 C 21.328125 7.464844 21.699219 7.445312 22.011719 7.605469 C 22.320312 7.765625 22.519531 8.082031 22.527344 8.429688 C 22.535156 8.78125 22.351562 9.105469 22.050781 9.28125 Z M 22.050781 9.28125 "/>
</g>
</svg>
