<?xml version="1.0" encoding="UTF-8"?>
<svg xmlns="http://www.w3.org/2000/svg" xmlns:xlink="http://www.w3.org/1999/xlink" width="27px" height="27px" viewBox="0 0 27 27" version="1.1">
<g id="surface1">
<path style=" stroke:none;fill-rule:nonzero;fill:rgb(40.392157%,86.666667%,3.921569%);fill-opacity:1;" d="M 13.5 2.53125 C 7.441406 2.53125 2.53125 7.441406 2.53125 13.5 C 2.53125 18.679688 6.121094 23.015625 10.949219 24.167969 C 10.699219 24.109375 10.453125 24.042969 10.210938 23.964844 L 10.210938 21.453125 C 10.210938 21.453125 9.796875 21.589844 9.25 21.589844 C 7.714844 21.589844 7.078125 20.21875 6.917969 19.53125 C 6.820312 19.113281 6.570312 18.71875 6.300781 18.472656 C 5.976562 18.1875 5.824219 18.183594 5.820312 18.085938 C 5.816406 17.878906 6.097656 17.886719 6.234375 17.886719 C 6.917969 17.886719 7.4375 18.617188 7.679688 18.992188 C 8.277344 19.925781 8.917969 20.082031 9.25 20.082031 C 9.660156 20.082031 10.015625 20.019531 10.261719 19.902344 C 10.375 19.105469 10.726562 18.394531 11.304688 17.886719 C 8.734375 17.375 6.917969 15.898438 6.917969 13.5 C 6.917969 12.265625 7.414062 11.128906 8.242188 10.210938 C 8.15625 9.972656 8.015625 9.488281 8.015625 8.703125 C 8.015625 8.179688 8.050781 7.539062 8.289062 6.917969 C 8.289062 6.917969 9.855469 6.929688 11.328125 8.328125 C 12.011719 8.128906 12.738281 8.015625 13.5 8.015625 C 14.261719 8.015625 14.988281 8.128906 15.671875 8.328125 C 17.144531 6.929688 18.710938 6.917969 18.710938 6.917969 C 18.949219 7.539062 18.984375 8.179688 18.984375 8.703125 C 18.984375 9.550781 18.871094 10.046875 18.800781 10.261719 C 19.601562 11.167969 20.082031 12.285156 20.082031 13.5 C 20.082031 15.898438 18.265625 17.375 15.695312 17.886719 C 16.378906 18.492188 16.789062 19.371094 16.789062 20.355469 L 16.789062 23.964844 C 16.546875 24.042969 16.300781 24.109375 16.050781 24.167969 C 20.878906 23.015625 24.46875 18.679688 24.46875 13.5 C 24.46875 7.441406 19.558594 2.53125 13.5 2.53125 Z M 14.265625 24.4375 C 14.011719 24.457031 13.757812 24.46875 13.5 24.46875 C 13.757812 24.46875 14.011719 24.457031 14.265625 24.4375 Z M 15.941406 24.191406 C 15.449219 24.304688 14.945312 24.382812 14.433594 24.425781 C 14.945312 24.382812 15.449219 24.304688 15.941406 24.191406 Z M 13.5 24.46875 C 13.242188 24.46875 12.988281 24.457031 12.734375 24.4375 C 12.988281 24.457031 13.242188 24.46875 13.5 24.46875 Z M 12.566406 24.425781 C 12.054688 24.382812 11.550781 24.304688 11.058594 24.191406 C 11.550781 24.304688 12.054688 24.382812 12.566406 24.425781 Z M 12.566406 24.425781 "/>
</g>
</svg>
