<?xml version="1.0" encoding="UTF-8"?>
<svg xmlns="http://www.w3.org/2000/svg" xmlns:xlink="http://www.w3.org/1999/xlink" width="40px" height="40px" viewBox="0 0 40 40" version="1.1">
<g id="surface1">
<path style=" stroke:none;fill-rule:nonzero;fill:rgb(40.392157%,86.666667%,3.921569%);fill-opacity:1;" d="M 20 3.75 C 11.027344 3.75 3.75 11.027344 3.75 20 C 3.75 27.671875 9.066406 34.097656 16.222656 35.800781 C 15.855469 35.714844 15.484375 35.613281 15.125 35.503906 L 15.125 31.78125 C 15.125 31.78125 14.515625 31.984375 13.703125 31.984375 C 11.433594 31.984375 10.484375 29.957031 10.25 28.9375 C 10.109375 28.316406 9.734375 27.730469 9.332031 27.371094 C 8.855469 26.941406 8.628906 26.941406 8.625 26.796875 C 8.621094 26.488281 9.035156 26.5 9.234375 26.5 C 10.25 26.5 11.019531 27.578125 11.375 28.140625 C 12.265625 29.519531 13.214844 29.75 13.703125 29.75 C 14.3125 29.75 14.839844 29.65625 15.203125 29.484375 C 15.371094 28.300781 15.894531 27.25 16.75 26.5 C 12.9375 25.738281 10.25 23.550781 10.25 20 C 10.25 18.171875 10.984375 16.488281 12.207031 15.128906 C 12.082031 14.777344 11.875 14.058594 11.875 12.890625 C 11.875 12.121094 11.925781 11.171875 12.28125 10.25 C 12.28125 10.25 14.597656 10.265625 16.785156 12.339844 C 17.792969 12.042969 18.875 11.875 20 11.875 C 21.125 11.875 22.207031 12.042969 23.214844 12.339844 C 25.402344 10.265625 27.71875 10.25 27.71875 10.25 C 28.074219 11.171875 28.125 12.121094 28.125 12.890625 C 28.125 14.152344 27.957031 14.886719 27.855469 15.203125 C 29.042969 16.546875 29.75 18.203125 29.75 20 C 29.75 23.550781 27.0625 25.738281 23.25 26.5 C 24.265625 27.394531 24.875 28.699219 24.875 30.15625 L 24.875 35.503906 C 24.515625 35.621094 24.152344 35.714844 23.777344 35.800781 C 30.933594 34.097656 36.25 27.671875 36.25 20 C 36.25 11.027344 28.972656 3.75 20 3.75 Z M 21.136719 36.207031 C 20.761719 36.234375 20.378906 36.25 20 36.25 C 20.378906 36.25 20.761719 36.234375 21.136719 36.207031 Z M 23.613281 35.84375 C 22.890625 36.003906 22.140625 36.125 21.378906 36.1875 C 22.140625 36.125 22.890625 36.003906 23.613281 35.84375 Z M 20 36.25 C 19.621094 36.25 19.238281 36.234375 18.863281 36.207031 C 19.238281 36.234375 19.621094 36.25 20 36.25 Z M 18.621094 36.1875 C 17.859375 36.125 17.109375 36.003906 16.386719 35.84375 C 17.109375 36.003906 17.859375 36.125 18.621094 36.1875 Z M 18.621094 36.1875 "/>
</g>
</svg>
