<?xml version="1.0" encoding="UTF-8"?>
<svg xmlns="http://www.w3.org/2000/svg" xmlns:xlink="http://www.w3.org/1999/xlink" width="47px" height="47px" viewBox="0 0 47 47" version="1.1">
<g id="surface1">
<path style=" stroke:none;fill-rule:nonzero;fill:rgb(40.392157%,86.666667%,3.921569%);fill-opacity:1;" d="M 12.089844 15.875 L 12.132812 15.875 C 14.367188 15.875 15.757812 14.394531 15.757812 12.539062 C 15.714844 10.648438 14.367188 9.210938 12.171875 9.210938 C 9.976562 9.210938 8.546875 10.648438 8.546875 12.539062 C 8.546875 14.394531 9.9375 15.875 12.089844 15.875 Z M 12.089844 15.875 "/>
<path style=" stroke:none;fill-rule:nonzero;fill:rgb(40.392157%,86.666667%,3.921569%);fill-opacity:1;" d="M 25.292969 37.789062 L 25.292969 27.019531 C 25.292969 26.441406 25.339844 25.867188 25.503906 25.460938 C 25.96875 24.304688 27.023438 23.113281 28.796875 23.113281 C 31.117188 23.113281 32.042969 24.882812 32.042969 27.476562 L 32.042969 37.789062 L 38.453125 37.789062 L 38.453125 26.730469 C 38.453125 20.808594 35.292969 18.050781 31.074219 18.050781 C 27.667969 18.050781 26.148438 19.929688 25.292969 21.238281 L 25.292969 21.300781 L 25.253906 21.300781 C 25.261719 21.28125 25.28125 21.261719 25.292969 21.238281 L 25.292969 18.507812 L 18.882812 18.507812 C 18.96875 20.316406 18.882812 37.789062 18.882812 37.789062 Z M 25.292969 37.789062 "/>
<path style=" stroke:none;fill-rule:nonzero;fill:rgb(40.392157%,86.666667%,3.921569%);fill-opacity:1;" d="M 8.925781 18.507812 L 15.335938 18.507812 L 15.335938 37.789062 L 8.925781 37.789062 Z M 8.925781 18.507812 "/>
</g>
</svg>
