<?xml version="1.0" encoding="UTF-8"?>
<svg xmlns="http://www.w3.org/2000/svg" xmlns:xlink="http://www.w3.org/1999/xlink" width="27px" height="27px" viewBox="0 0 27 27" version="1.1">
<g id="surface1">
<path style=" stroke:none;fill-rule:nonzero;fill:rgb(40.392157%,86.666667%,3.921569%);fill-opacity:1;" d="M 6.945312 9.117188 L 6.972656 9.117188 C 8.253906 9.117188 9.054688 8.269531 9.054688 7.203125 C 9.027344 6.117188 8.253906 5.289062 6.992188 5.289062 C 5.730469 5.289062 4.910156 6.117188 4.910156 7.203125 C 4.910156 8.269531 5.710938 9.117188 6.945312 9.117188 Z M 6.945312 9.117188 "/>
<path style=" stroke:none;fill-rule:nonzero;fill:rgb(40.392157%,86.666667%,3.921569%);fill-opacity:1;" d="M 14.527344 21.710938 L 14.527344 15.519531 C 14.527344 15.191406 14.554688 14.859375 14.65625 14.625 C 14.917969 13.964844 15.523438 13.277344 16.542969 13.277344 C 17.878906 13.277344 18.410156 14.296875 18.410156 15.785156 L 18.410156 21.710938 L 22.089844 21.710938 L 22.089844 15.355469 C 22.089844 11.953125 20.277344 10.371094 17.851562 10.371094 C 15.894531 10.371094 15.019531 11.449219 14.527344 12.203125 L 14.527344 12.238281 L 14.507812 12.238281 C 14.511719 12.222656 14.523438 12.214844 14.527344 12.203125 L 14.527344 10.632812 L 10.847656 10.632812 C 10.894531 11.671875 10.847656 21.710938 10.847656 21.710938 Z M 14.527344 21.710938 "/>
<path style=" stroke:none;fill-rule:nonzero;fill:rgb(40.392157%,86.666667%,3.921569%);fill-opacity:1;" d="M 5.125 10.632812 L 8.8125 10.632812 L 8.8125 21.710938 L 5.125 21.710938 Z M 5.125 10.632812 "/>
</g>
</svg>
