<?xml version="1.0" encoding="UTF-8"?>
<svg xmlns="http://www.w3.org/2000/svg" xmlns:xlink="http://www.w3.org/1999/xlink" width="20px" height="20px" viewBox="0 0 20 20" version="1.1">
<g id="surface1">
<path style=" stroke:none;fill-rule:nonzero;fill:rgb(40.392157%,86.666667%,3.921569%);fill-opacity:1;" d="M 5.144531 6.753906 L 5.164062 6.753906 C 6.113281 6.753906 6.707031 6.125 6.707031 5.335938 C 6.6875 4.53125 6.113281 3.917969 5.179688 3.917969 C 4.246094 3.917969 3.636719 4.53125 3.636719 5.335938 C 3.636719 6.125 4.230469 6.753906 5.144531 6.753906 Z M 5.144531 6.753906 "/>
<path style=" stroke:none;fill-rule:nonzero;fill:rgb(40.392157%,86.666667%,3.921569%);fill-opacity:1;" d="M 10.761719 16.082031 L 10.761719 11.496094 C 10.761719 11.253906 10.78125 11.007812 10.855469 10.832031 C 11.050781 10.34375 11.5 9.835938 12.253906 9.835938 C 13.242188 9.835938 13.636719 10.589844 13.636719 11.691406 L 13.636719 16.082031 L 16.363281 16.082031 L 16.363281 11.375 C 16.363281 8.855469 15.019531 7.683594 13.222656 7.683594 C 11.773438 7.683594 11.125 8.480469 10.761719 9.039062 L 10.761719 9.066406 L 10.746094 9.066406 C 10.75 9.054688 10.757812 9.046875 10.761719 9.039062 L 10.761719 7.875 L 8.035156 7.875 C 8.070312 8.644531 8.035156 16.082031 8.035156 16.082031 Z M 10.761719 16.082031 "/>
<path style=" stroke:none;fill-rule:nonzero;fill:rgb(40.392157%,86.666667%,3.921569%);fill-opacity:1;" d="M 3.796875 7.875 L 6.527344 7.875 L 6.527344 16.082031 L 3.796875 16.082031 Z M 3.796875 7.875 "/>
</g>
</svg>
