<?xml version="1.0" encoding="UTF-8"?>
<svg xmlns="http://www.w3.org/2000/svg" xmlns:xlink="http://www.w3.org/1999/xlink" width="40px" height="40px" viewBox="0 0 40 40" version="1.1">
<g id="surface1">
<path style=" stroke:none;fill-rule:nonzero;fill:rgb(40.392157%,86.666667%,3.921569%);fill-opacity:1;" d="M 32.046875 25.433594 L 27.8125 24.949219 C 26.804688 24.832031 25.800781 25.183594 25.082031 25.898438 L 22.015625 28.964844 C 17.285156 26.558594 13.441406 22.714844 11.035156 17.984375 L 14.113281 14.898438 C 14.835938 14.183594 15.183594 13.183594 15.066406 12.164062 L 14.585938 7.964844 C 14.386719 6.28125 12.960938 5.011719 11.265625 5.015625 L 8.382812 5.015625 C 6.5 5.015625 4.933594 6.585938 5.050781 8.464844 C 5.933594 22.699219 17.316406 34.066406 31.535156 34.949219 C 33.414062 35.066406 34.980469 33.5 34.980469 31.617188 L 34.980469 28.734375 C 34.992188 27.046875 33.726562 25.625 32.050781 25.433594 Z M 32.046875 25.433594 "/>
</g>
</svg>
