<?xml version="1.0" encoding="UTF-8"?>
<svg xmlns="http://www.w3.org/2000/svg" xmlns:xlink="http://www.w3.org/1999/xlink" width="27px" height="27px" viewBox="0 0 27 27" version="1.1">
<g id="surface1">
<path style=" stroke:none;fill-rule:nonzero;fill:rgb(40.392157%,86.666667%,3.921569%);fill-opacity:1;" d="M 21.632812 17.167969 L 18.773438 16.839844 C 18.09375 16.761719 17.414062 16.996094 16.929688 17.484375 L 14.859375 19.550781 C 11.667969 17.925781 9.070312 15.332031 7.449219 12.140625 L 9.527344 10.058594 C 10.011719 9.574219 10.25 8.898438 10.167969 8.210938 L 9.84375 5.378906 C 9.710938 4.242188 8.746094 3.382812 7.601562 3.386719 L 5.660156 3.386719 C 4.386719 3.386719 3.332031 4.445312 3.410156 5.714844 C 4.003906 15.324219 11.6875 22.996094 21.285156 23.589844 C 22.554688 23.667969 23.613281 22.613281 23.613281 21.339844 L 23.613281 19.394531 C 23.617188 18.257812 22.765625 17.296875 21.632812 17.167969 Z M 21.632812 17.167969 "/>
</g>
</svg>
